<?xml version="1.0" encoding="UTF-8"?>
<svg id="Layer_2" data-name="Layer 2" xmlns="http://www.w3.org/2000/svg" viewBox="0 0 1643.65 861.37">
  <defs>
    <style>
      .cls-1 {
        fill: #fff;
      }

      .cls-2 {
        fill: #f89825;
      }
    </style>
  </defs>
  <g id="Layer_1-2" data-name="Layer 1">
    <g>
      <path class="cls-2" d="m831.64,0c13.13,17.51,30.33,31.27,45.65,46.9,20.95,21.57,36.89,44.4,34.71,76.6-1.25,17.51-5.94,33.14-16.57,46.9-17.51,22.82-39.08,41.58-59.72,61.28-9.69,9.07-18.76,9.07-27.83-.31-17.51-17.82-36.27-34.39-52.53-53.15-31.58-36.89-29.7-85.36,4.06-122.25,17.82-19.38,37.52-37.21,56.59-55.65,5.32-.31,10.32-.31,15.63-.31Z"/>
      <path class="cls-2" d="m821.32,423.34c-33.45,4.06-58.15-12.82-78.48-38.46-44.71-56.28-96.92-104.74-156.02-145.39-6.25-4.38-12.51-9.07-17.82-14.38-14.38-15.32-13.13-23.45,5.63-34.71,37.52-22.82,77.85-26.26,119.44-15.01,37.52,10.32,67.22,31.58,86.29,65.97,10.01,17.82,10.32,35.64-1.56,53.46-7.82,11.57-13.44,24.07-13.13,38.46,0,22.51,14.07,42.52,35.33,50.96,21.89,8.75,47.52,3.13,63.47-13.76,14.38-15.32,21.26-44.08,9.38-60.97-33.77-46.59-6.25-85.98,29.7-110.99,50.65-35.02,105.99-40.33,161.96-11.26,23.76,12.19,25.33,28.76,3.44,44.08-45.96,32.52-89.73,67.22-127.88,108.81-14.69,16.26-28.76,33.14-43.15,49.71-20.01,22.51-41.9,36.58-76.6,33.45Z"/>
    </g>
    <g>
      <path class="cls-1" d="m427.72,741c0,22.82-7.5,33.14-22.2,33.14-1.88,0-3.75-.31-5.63-.94v-.31c9.07-4.69,15.01-11.57,15.32-31.89v-42.52c-1.25,0-2.19-.31-3.44-.31-3.75,0-7.5.31-10.63,1.25l3.13-10.63h25.64c-.63,2.81-1.25,5.94-1.56,9.38-.31,3.44-.31,8.13-.31,14.07v28.76h-.31Z"/>
      <path class="cls-1" d="m443.04,709.11c0-8.44-.94-13.76-3.13-20.01h40.02l-5.94,13.13c-5-2.81-11.26-4.38-18.45-4.69v21.26h22.2l-7.19,12.19c-4.06-1.88-9.07-2.81-15.01-3.13v22.2c11.26,0,19.7-1.56,28.14-5l.31.31-5.94,14.07h-38.14c2.19-6.25,3.13-11.57,3.13-20.01v-30.33h0Z"/>
      <path class="cls-1" d="m574.04,689.1c-2.19,4.38-4.38,10.63-6.88,18.76l-14.07,50.96h-11.88l-12.82-37.21-12.82,37.21h-11.88l-14.07-50.96c-2.19-8.75-4.69-15.01-6.88-18.76h17.82c-.31,1.56-.31,3.44-.31,5,0,4.06.63,8.75,2.19,14.07l8.13,30.02,17.82-49.71h.31l17.51,49.4,8.13-30.02c1.56-5.63,2.19-10.32,2.19-14.07,0-1.56-.31-3.13-.31-5h17.82v.31Z"/>
      <path class="cls-1" d="m580.61,709.11c0-8.44-.94-13.76-3.13-20.01h40.02l-5.94,13.13c-5-2.81-11.26-4.38-18.45-4.69v21.26h22.2l-7.19,12.19c-4.06-1.88-9.07-2.81-15.01-3.13v22.2c11.26,0,19.7-1.56,28.14-5l.31.31-5.94,14.07h-38.14c2.19-6.25,3.13-11.57,3.13-20.01v-30.33h0Z"/>
      <path class="cls-1" d="m629.7,709.11c0-8.44-.94-13.76-3.13-20.01h18.45c-2.19,6.25-3.13,11.57-3.13,20.01v40.65c4.38-.31,9.38-1.25,14.38-2.5,5.32-1.25,9.38-2.81,12.19-4.06l.31.31-6.57,15.95h-35.96c2.19-6.25,3.13-11.57,3.13-20.01v-30.33h.31Z"/>
      <path class="cls-1" d="m675.97,709.11c0-8.44-.94-13.76-3.13-20.01h18.45c-2.19,6.25-3.13,11.57-3.13,20.01v40.65c4.38-.31,9.38-1.25,14.38-2.5,5.32-1.25,9.38-2.81,12.19-4.06l.31.31-6.57,15.95h-35.96c2.19-6.25,3.13-11.57,3.13-20.01v-30.33h.31Z"/>
      <path class="cls-1" d="m722.56,709.11c0-8.44-.94-13.76-3.13-20.01h40.02l-5.94,13.13c-5-2.81-11.26-4.38-18.45-4.69v21.26h22.2l-7.19,12.19c-4.06-1.88-9.07-2.81-15.01-3.13v22.2c11.26,0,19.7-1.56,28.14-5l.31.31-5.94,14.07h-38.14c2.19-6.25,3.13-11.57,3.13-20.01v-30.33h0Z"/>
      <path class="cls-1" d="m821.98,759.13h-10.94c-2.5-.94-5.94-3.75-9.69-8.44-5-5.94-10.63-14.07-17.2-23.76v12.19c0,8.44.94,13.76,3.13,20.01h-18.45c2.19-6.25,3.13-11.57,3.13-20.01v-29.7c0-8.44-.94-13.76-3.13-20.01h17.2c17.82,0,27.83,9.07,27.83,20.32,0,8.13-4.38,14.38-12.82,18.76,2.81,5,5.63,9.69,8.75,14.07,3.13,4.38,7.19,10.01,12.51,16.26v.31h-.31Zm-37.83-62.53v29.08c10.63-2.5,16.26-8.13,16.26-14.69,0-8.75-7.19-14.38-16.26-14.38Z"/>
      <path class="cls-1" d="m825.42,740.38h.31c6.25,7.5,10.01,9.69,15.63,9.69,5.32,0,9.38-3.75,9.38-8.75,0-4.69-2.19-6.88-12.19-12.82-10.01-5.94-13.44-11.57-13.44-20.01,0-10.63,8.75-20.32,21.89-20.32,5,0,9.69.94,13.76,3.13v12.51h-.31c-4.69-4.06-8.44-5.63-13.13-5.63-5.63,0-9.38,3.75-9.38,8.44,0,4.38,3.13,8.44,11.57,13.44,10.94,6.25,14.69,10.32,15.01,19.38,0,12.82-10.63,20.64-23.45,20.64-5.63,0-10.63-.94-15.32-2.81v-16.88h-.31Z"/>
      <path class="cls-1" d="m913.28,731.93c-1.25,0-2.5,0-3.44-.31v7.19c0,8.44.94,13.76,3.13,20.01h-18.45c2.19-6.25,3.13-11.57,3.13-20.01v-29.7c0-8.44-.94-13.76-3.13-20.01h17.51c17.51,0,27.2,9.38,27.2,21.26-.31,13.13-10.32,21.57-25.95,21.57Zm-3.13-35.33c-.31,2.5-.31,5.63-.31,9.38v20.32c10.01-1.25,16.26-7.5,16.26-15.32s-6.25-13.76-15.95-14.38Z"/>
      <path class="cls-1" d="m1012.39,689.1h0c-2.19,2.5-3.75,5-5.32,7.5-1.25,2.5-2.81,5.63-4.69,9.69l-22.2,52.84h-11.57l-20.32-51.59c-3.44-8.13-7.19-15.32-10.01-18.13v-.31h20.64c-.31,1.56-.63,3.44-.63,5,0,3.75,1.25,8.44,3.13,14.07l13.13,33.45,13.13-31.58c3.13-7.19,4.38-12.51,4.38-15.95,0-1.56-.31-3.13-.94-4.69h21.26v-.31Z"/>
      <path class="cls-1" d="m1032.4,698.48c-8.44,0-16.26,2.19-22.51,5.32l-.31-.31,4.38-14.38h54.72l-5.94,13.76c-5-3.13-10.63-4.38-18.13-4.38v40.65c0,8.44.94,13.76,3.13,20.01h-18.45c2.19-6.25,3.13-11.57,3.13-20.01v-40.65Z"/>
      <path class="cls-1" d="m1072.42,760.07c-5.32,0-9.07-3.44-9.07-9.07s3.44-9.07,9.07-9.07,9.07,3.44,9.07,9.07-3.75,9.07-9.07,9.07Z"/>
      <path class="cls-1" d="m1092.43,709.11c0-8.44-.94-13.76-3.13-20.01h18.45c-2.19,6.25-3.13,11.57-3.13,20.01v40.65c4.38-.31,9.38-1.25,14.38-2.5,5.32-1.25,9.38-2.81,12.19-4.06l.31.31-6.57,15.95h-35.33c2.19-6.25,3.13-11.57,3.13-20.01v-30.33h-.31Z"/>
      <path class="cls-1" d="m1145.27,698.48c-8.44,0-16.26,2.19-22.51,5.32l-.31-.31,4.38-14.38h54.72l-5.94,13.76c-5-3.13-10.63-4.38-18.13-4.38v40.65c0,8.44.94,13.76,3.13,20.01h-18.45c2.19-6.25,3.13-11.57,3.13-20.01v-40.65Z"/>
      <path class="cls-1" d="m1188.1,709.11c0-8.44-.94-13.76-3.44-20.01,5.63-.31,10.32-.63,13.76-.63,29.08,0,45.34,14.07,45.34,35.02.31,22.2-18.13,35.64-41.9,35.64h-16.26c2.19-6.25,3.13-11.57,3.13-20.01v-30.02h-.63Zm12.82-11.88c-.31,3.44-.63,7.5-.63,12.51v27.2c0,5.63.31,10.01.63,13.44,16.88-.94,27.51-10.01,27.51-25.95.31-15.63-10.32-26.26-27.51-27.2Z"/>
    </g>
    <g>
      <path class="cls-2" d="m380.51,831.67c.31.94.94,1.56,1.88,2.19.94.63,1.88,1.25,3.44,1.88s3.44.94,5.63,1.56c4.69.94,8.13,2.5,10.32,4.38,2.19,1.88,3.44,4.38,3.44,7.5,0,1.88-.31,3.44-.94,5-.63,1.56-1.56,2.81-2.81,3.75-1.25.94-2.81,1.88-4.38,2.5s-3.75.94-5.63.94c-3.44,0-6.25-.63-9.07-1.56s-5.32-2.81-7.82-5l2.81-3.44c2.19,1.88,4.38,3.44,6.57,4.38s4.69,1.56,7.82,1.56c2.81,0,5-.63,6.88-1.88,1.56-1.25,2.5-3.13,2.5-5.32,0-.94-.31-1.88-.63-2.5s-.94-1.56-1.56-2.19c-.94-.63-1.88-1.25-3.44-1.88s-3.13-.94-5.32-1.56c-2.5-.63-4.38-1.25-6.25-1.88s-3.13-1.56-4.38-2.5-1.88-2.19-2.5-3.44c-.63-1.25-.94-2.81-.94-4.38s.31-3.13.94-4.69c.63-1.25,1.56-2.5,2.81-3.75,1.25-.94,2.81-1.88,4.38-2.5,1.56-.63,3.44-.94,5.63-.94,3.13,0,5.63.31,8.13,1.25,2.19.94,4.38,2.19,6.57,3.75l-2.81,3.75c-1.88-1.56-3.75-2.81-5.94-3.44-1.88-.63-4.06-.94-6.25-.94-1.25,0-2.5.31-3.75.63-.94.31-1.88.94-2.81,1.56s-1.25,1.25-1.88,2.19-.63,1.88-.63,2.81c-.31.31-.31,1.25,0,2.19Z"/>
      <path class="cls-2" d="m440.23,860.12h-4.69v-16.57l-17.2-25.33h5.63l14.07,20.95,14.07-20.95h5.63l-17.2,25.01v16.88h-.31Z"/>
      <path class="cls-2" d="m494.63,848.87h0l-15.32-22.2v33.77h-4.69v-41.58h4.69l15.32,22.82,15.32-22.82h4.69v41.58h-4.69v-33.77l-15.32,22.2Z"/>
      <path class="cls-2" d="m559.04,819.17c1.56.63,3.13,1.25,4.38,2.19,1.25.94,2.19,1.88,2.81,3.13s.94,2.81.94,4.38c0,1.25-.31,2.5-.63,3.75-.31.94-.94,1.88-1.56,2.81s-1.25,1.56-2.19,1.88c-.63.63-1.56.94-2.5,1.25,1.25.31,2.5.94,3.44,1.25.94.63,2.19,1.25,2.81,2.19s1.56,1.88,1.88,2.81.63,2.5.63,3.75c0,1.88-.31,3.44-.94,4.69s-1.88,2.5-3.13,3.75c-1.25.94-2.81,1.56-4.69,2.19s-4.06.63-6.25.63h-18.45v-41.58h17.82c2.19.31,4.06.63,5.63.94Zm.63,15.95c1.88-1.25,2.81-3.13,2.81-5.63,0-2.19-.94-3.75-2.5-5s-3.75-1.88-6.88-1.88h-12.51v14.38h12.19c2.81,0,5-.63,6.88-1.88Zm2.19,19.07c1.88-1.25,2.81-3.13,2.81-5.63,0-2.19-.94-4.06-2.81-5.32-1.88-1.25-4.69-1.88-8.13-1.88h-13.13v14.69h14.07c2.81,0,5.32-.63,7.19-1.88Z"/>
      <path class="cls-2" d="m627.51,847.62c-.94,2.5-2.5,5-4.38,6.88s-4.06,3.44-6.88,4.69c-2.5,1.25-5.63,1.88-8.75,1.88s-5.94-.63-8.75-1.88c-2.5-1.25-4.69-2.81-6.57-4.69s-3.44-4.38-4.38-6.88c-.94-2.5-1.56-5.32-1.56-8.13s.63-5.63,1.56-8.13,2.5-5,4.38-6.88,4.06-3.44,6.88-4.69c2.5-1.25,5.63-1.88,8.75-1.88s5.94.63,8.75,1.88c2.5,1.25,4.69,2.81,6.57,4.69s3.44,4.38,4.38,6.88c.94,2.5,1.56,5.32,1.56,8.13s-.63,5.32-1.56,8.13Zm-4.69-15.01c-.94-2.19-1.88-4.06-3.44-5.63s-3.13-2.81-5.32-3.75c-1.88-.94-4.06-1.25-6.57-1.25s-4.69.31-6.57,1.25-3.75,2.19-5,3.75-2.5,3.44-3.44,5.32c-.94,2.19-1.25,4.38-1.25,6.57,0,2.5.31,4.69,1.25,6.88s1.88,4.06,3.44,5.63,3.13,2.81,5.32,3.75c1.88.94,4.06,1.25,6.57,1.25s4.69-.31,6.57-1.25,3.75-2.19,5-3.75,2.5-3.44,3.44-5.32c.94-2.19,1.25-4.38,1.25-6.57,0-2.5-.31-4.69-1.25-6.88Z"/>
      <path class="cls-2" d="m648.46,818.54h4.69v37.21h23.45v4.38h-28.14v-41.58Z"/>
      <path class="cls-2" d="m761.33,847.62c-.94,2.5-2.5,5-4.38,6.88s-4.06,3.44-6.88,4.69c-2.5,1.25-5.63,1.88-8.75,1.88s-5.94-.63-8.75-1.88c-2.5-1.25-4.69-2.81-6.57-4.69s-3.44-4.38-4.38-6.88c-.94-2.5-1.56-5.32-1.56-8.13s.63-5.63,1.56-8.13,2.5-5,4.38-6.88,4.06-3.44,6.88-4.69c2.5-1.25,5.63-1.88,8.75-1.88s5.94.63,8.75,1.88c2.5,1.25,4.69,2.81,6.57,4.69s3.44,4.38,4.38,6.88c.94,2.5,1.56,5.32,1.56,8.13s-.63,5.32-1.56,8.13Zm-4.38-15.01c-.94-2.19-1.88-4.06-3.44-5.63s-3.13-2.81-5.32-3.75c-1.88-.94-4.06-1.25-6.57-1.25s-4.69.31-6.57,1.25-3.75,2.19-5,3.75-2.5,3.44-3.44,5.32c-.94,2.19-1.25,4.38-1.25,6.57,0,2.5.31,4.69,1.25,6.88s1.88,4.06,3.44,5.63,3.13,2.81,5.32,3.75c1.88.94,4.06,1.25,6.57,1.25s4.69-.31,6.57-1.25,3.75-2.19,5-3.75,2.5-3.44,3.44-5.32c.94-2.19,1.25-4.38,1.25-6.57-.31-2.5-.63-4.69-1.25-6.88Z"/>
      <path class="cls-2" d="m812.29,822.92h-25.33v15.01h22.51v4.38h-22.51v18.13h-4.69v-41.58h30.02v4.06Z"/>
      <path class="cls-2" d="m874.2,860.12h-4.69v-37.21h-14.07v-4.38h32.83v4.38h-14.07v37.21Z"/>
      <path class="cls-2" d="m935.16,860.12l-12.19-16.26h-11.88v16.26h-4.69v-41.58h17.82c2.19,0,4.38.31,6.25.94,1.88.63,3.44,1.56,4.69,2.5s2.19,2.5,3.13,4.06.94,3.13.94,5-.31,3.44-.94,4.69c-.63,1.25-1.25,2.5-2.5,3.44-.94.94-2.19,1.88-3.75,2.5-1.25.63-2.81,1.25-4.38,1.56l12.82,16.88h-5.32Zm-3.13-35.02c-1.88-1.56-4.38-2.19-7.82-2.19h-12.82v16.88h12.82c1.56,0,3.13-.31,4.38-.63s2.5-.94,3.44-1.56,1.56-1.56,2.19-2.81c.63-.94.94-2.19.94-3.75-.31-2.5-1.25-4.69-3.13-5.94Z"/>
      <path class="cls-2" d="m998.01,860.12h-5l-5-10.94h-22.82l-5,10.94h-4.69l19.07-41.9h4.38l19.07,41.9Zm-21.26-36.27l-9.38,21.26h19.07l-9.69-21.26Z"/>
      <path class="cls-2" d="m1050.54,847.62c-.94,2.5-2.5,4.69-4.69,6.57-1.88,1.88-4.38,3.44-6.88,4.38-2.81.94-5.63,1.56-9.07,1.56h-14.38v-41.58h14.38c3.13,0,6.25.63,9.07,1.56s5,2.5,6.88,4.38,3.44,4.06,4.69,6.57c.94,2.5,1.56,5.32,1.56,8.13.31,3.13-.31,5.94-1.56,8.44Zm-4.38-14.69c-.94-1.88-1.88-3.75-3.44-5.32s-3.44-2.81-5.32-3.44c-2.19-.94-4.38-1.25-7.19-1.25h-9.69v33.14h9.69c2.5,0,5-.31,7.19-1.25s4.06-1.88,5.32-3.44c1.56-1.56,2.5-3.13,3.44-5.32.94-1.88,1.25-4.06,1.25-6.57,0-2.5-.31-4.69-1.25-6.57Z"/>
      <path class="cls-2" d="m1076.8,818.54v41.58h-4.69v-41.58h4.69Z"/>
      <path class="cls-2" d="m1114.32,860.12h-4.69v-37.21h-14.07v-4.38h32.83v4.38h-14.07v37.21Z"/>
      <path class="cls-2" d="m1151.84,818.54v41.58h-4.69v-41.58h4.69Z"/>
      <path class="cls-2" d="m1212.81,847.62c-.94,2.5-2.5,5-4.38,6.88-1.88,1.88-4.06,3.44-6.88,4.69-2.5,1.25-5.63,1.88-8.75,1.88s-5.94-.63-8.75-1.88c-2.5-1.25-4.69-2.81-6.57-4.69s-3.44-4.38-4.38-6.88c-.94-2.5-1.56-5.32-1.56-8.13s.63-5.63,1.56-8.13,2.5-5,4.38-6.88c1.88-1.88,4.06-3.44,6.88-4.69,2.5-1.25,5.63-1.88,8.75-1.88s5.94.63,8.75,1.88c2.5,1.25,4.69,2.81,6.57,4.69,1.88,1.88,3.44,4.38,4.38,6.88.94,2.5,1.56,5.32,1.56,8.13s-.63,5.32-1.56,8.13Zm-4.69-15.01c-.94-2.19-1.88-4.06-3.44-5.63s-3.13-2.81-5.32-3.75c-1.88-.94-4.06-1.25-6.57-1.25s-4.69.31-6.57,1.25-3.75,2.19-5,3.75-2.5,3.44-3.44,5.32c-.94,2.19-1.25,4.38-1.25,6.57,0,2.5.31,4.69,1.25,6.88.94,2.19,1.88,4.06,3.44,5.63s3.13,2.81,5.32,3.75c1.88.94,4.06,1.25,6.57,1.25s4.69-.31,6.57-1.25,3.75-2.19,5-3.75,2.5-3.44,3.44-5.32c.94-2.19,1.25-4.38,1.25-6.57,0-2.5-.31-4.69-1.25-6.88Z"/>
      <path class="cls-2" d="m1264.39,818.54h4.69v41.58h-3.75l-26.89-34.08v34.08h-4.69v-41.58h4.38l26.26,33.45v-33.45h0Z"/>
    </g>
    <g>
      <path class="cls-1" d="m.94,604.99h.63c11.57,14.07,19.07,18.45,29.08,18.45s17.51-6.88,17.51-16.26c0-8.75-4.38-13.13-22.82-24.07-18.76-10.94-25.33-21.57-25.33-37.83,0-20.01,16.57-38.14,40.96-38.14,9.38,0,18.13,1.88,25.95,5.63v23.76l-.63.31c-8.75-7.82-15.95-10.63-24.7-10.63-10.63,0-17.51,7.19-17.51,15.63s5.63,15.63,21.89,25.01c20.32,11.88,27.51,19.38,27.83,36.58,0,24.39-19.7,38.77-44.4,38.77-10.63,0-20.32-1.88-28.76-5v-32.2h.31Z"/>
      <path class="cls-1" d="m190.72,640.01h-20.64c-5-1.88-10.94-7.19-18.13-15.63-9.38-11.26-20.01-26.26-32.52-44.71v22.51c0,15.95,1.56,25.95,5.63,37.83h-34.71c4.06-11.57,5.63-21.89,5.63-37.83v-55.97c0-15.95-1.56-25.95-5.63-37.83h32.2c33.77,0,51.9,16.88,51.9,38.14,0,15.32-8.13,26.89-24.07,35.02,5.32,9.38,10.63,18.13,16.57,26.58,5.94,8.44,13.76,18.76,23.14,30.95v.94h.63Zm-70.97-116.93v54.4c20.01-4.69,30.95-15.01,30.95-27.83,0-16.26-13.76-26.58-30.95-26.58Z"/>
      <path class="cls-1" d="m203.54,546.21c0-15.95-1.56-25.95-5.63-37.83h34.71c-4.06,11.57-5.63,21.89-5.63,37.83v55.97c0,15.95,1.56,25.95,5.63,37.83h-34.71c4.06-11.57,5.63-21.89,5.63-37.83v-55.97Z"/>
      <path class="cls-1" d="m410.21,508.7v.63c-3.75,4.38-7.19,9.07-9.69,13.44-2.5,4.38-5.32,10.63-8.75,18.45l-41.58,99.11h-21.89l-38.14-96.92c-6.25-15.32-13.44-29.08-18.76-34.08v-.63h39.08c-.94,3.13-1.25,6.25-1.25,9.38,0,7.19,2.19,15.63,6.25,26.26l24.7,62.53,25.01-59.09c5.63-13.44,8.44-23.45,8.44-30.33,0-2.81-.63-5.63-1.56-8.75h38.14Z"/>
      <path class="cls-1" d="m420.21,546.21c0-15.95-1.56-25.95-5.63-37.83h75.35l-11.26,25.01c-9.38-5.32-20.95-8.44-34.71-8.75v39.71h41.9l-13.44,22.51c-7.5-3.44-16.88-5.32-28.45-5.63v41.58c21.26,0,37.21-2.81,52.84-9.69l.31.31-10.94,26.26h-71.6c4.06-11.57,5.63-21.89,5.63-37.83v-55.65h0Z"/>
      <path class="cls-1" d="m628.44,597.18c0,18.45,1.56,30.64,4.06,42.83h-30.95c-1.25-4.06-4.69-10.01-10.32-17.51l-52.84-69.72v44.4c0,9.69.31,17.51,1.25,24.07.94,6.25,2.19,12.51,4.38,19.07h-33.77c2.19-6.57,3.44-13.13,4.06-19.07.94-6.25,1.25-14.07,1.25-23.76v-69.72c-6.25-8.13-10.63-12.51-17.51-18.13v-.63h38.77c1.25,3.44,2.81,6.88,4.38,9.69,1.88,3.13,4.69,7.19,9.07,12.82l55.34,72.85v-52.53c0-9.69-.63-17.51-1.25-23.45-.94-6.25-2.19-12.82-4.06-19.38h34.08c-2.19,6.57-3.75,12.82-4.38,19.07-.63,6.25-1.25,14.07-1.25,23.76v45.34h-.31Z"/>
      <path class="cls-1" d="m769.45,640.01h-40.33c-.63-6.25-5.32-16.26-13.13-25.95l-34.39-45.34v33.45c0,15.95,1.56,25.95,5.63,37.83h-34.71c4.06-11.57,5.63-21.89,5.63-37.83v-55.97c0-15.95-1.56-25.95-5.63-37.83h34.71c-4.06,11.57-5.63,21.89-5.63,37.83v20.64l30.95-39.71c5.32-7.19,6.88-11.26,7.5-18.76h41.27v.63c-11.57,9.38-21.89,19.7-30.64,31.27l-20.64,26.58,36.58,48.15c7.82,10.32,15.32,18.45,22.82,24.39v.63Z"/>
      <path class="cls-1" d="m901.08,640.01h-36.58c.31-1.25.63-2.5.63-4.38,0-5.63-1.88-11.57-6.57-22.82l-2.81-7.19h-51.28l-3.44,7.5c-4.38,10.32-6.57,16.88-6.57,22.51,0,1.56.31,2.81.31,4.38h-35.96v-.63c6.57-7.82,11.57-15.95,18.45-30.33l31.58-68.16c6.25-13.44,10.63-24.39,12.82-32.52h20.64c1.88,7.5,5.63,18.45,11.88,32.52l29.08,68.78c5.63,13.13,10.01,20.64,17.51,30.02v.31h.31Zm-88.17-53.46h35.02l-16.88-41.27-18.13,41.27Z"/>
      <path class="cls-1" d="m919.84,526.2c-15.95,0-30.64,3.75-42.21,10.01l-.31-.31,8.13-27.2h102.86l-10.94,25.95c-9.38-5.63-19.7-8.13-33.77-8.44v76.29c0,15.95,1.56,25.95,5.63,37.83h-34.71c4.06-11.57,5.63-21.57,5.63-37.83v-76.29h-.31Z"/>
      <path class="cls-1" d="m1000.19,546.21c0-15.95-1.56-25.95-5.63-37.83h75.35l-11.26,25.01c-9.38-5.32-20.95-8.44-34.71-8.75v39.71h41.58l-13.44,22.51c-7.5-3.44-16.88-5.32-28.45-5.63v41.58c21.26,0,37.21-2.81,52.84-9.69l.31.31-10.94,26.26h-71.6c4.06-11.57,5.63-21.89,5.63-37.83v-55.65h.31Z"/>
      <path class="cls-1" d="m1086.49,604.99h.63c11.57,14.07,19.07,18.45,29.08,18.45s17.51-6.88,17.51-16.26c0-8.75-4.38-13.13-22.82-24.07-18.76-10.94-25.33-21.57-25.33-37.83,0-20.01,16.57-38.14,40.96-38.14,9.38,0,18.13,1.88,25.95,5.63v23.76l-.63.31c-8.75-7.82-15.95-10.63-24.7-10.63-10.63,0-17.51,7.19-17.51,15.63s5.63,15.63,21.89,25.01c20.32,11.88,27.51,19.38,27.83,36.58,0,24.39-19.7,38.77-44.4,38.77-10.63,0-20.32-1.88-28.76-5v-32.2h.31Z"/>
      <path class="cls-1" d="m1330.37,508.7c-4.38,8.13-8.44,20.01-12.82,35.33l-26.26,95.99h-22.51l-24.07-69.72-24.39,69.72h-22.2l-26.26-95.99c-4.38-16.26-8.75-27.83-13.13-35.33h33.77c-.63,3.13-.94,6.25-.94,9.07,0,7.5,1.56,16.26,4.06,26.26l15.32,56.59,33.14-93.17h.94l33.14,92.55,15.32-56.28c2.81-10.32,4.06-19.38,4.06-26.26,0-3.13-.31-6.25-.94-9.38h33.77v.63Z"/>
      <path class="cls-1" d="m1459.18,640.01h-36.58c.31-1.25.63-2.5.63-4.38,0-5.63-1.88-11.57-6.57-22.82l-2.81-7.19h-51.28l-3.44,7.5c-4.38,10.32-6.57,16.88-6.57,22.51,0,1.56.31,2.81.31,4.38h-35.96v-.63c6.57-7.82,11.57-15.95,18.45-30.33l31.58-68.16c6.25-13.44,10.63-24.39,12.82-32.52h20.64c1.88,7.5,5.63,18.45,11.88,32.52l29.08,68.78c5.63,13.13,10.01,20.64,17.51,30.02v.31h.31Zm-88.17-53.46h35.02l-16.88-41.27-18.13,41.27Z"/>
      <path class="cls-1" d="m1562.99,640.01h-20.64c-5-1.88-10.94-7.19-18.13-15.63-9.38-11.26-20.01-26.26-32.52-44.71v22.51c0,15.95,1.56,25.95,5.63,37.83h-34.71c4.06-11.57,5.63-21.89,5.63-37.83v-55.97c0-15.95-1.56-25.95-5.63-37.83h32.2c33.77,0,51.9,16.88,51.9,38.14,0,15.32-8.13,26.89-24.07,35.02,5.32,9.38,10.63,18.13,16.57,26.58,5.94,8.44,13.76,18.76,23.14,30.95v.94h.63Zm-71.29-116.93v54.4c20.01-4.69,30.95-15.01,30.95-27.83,0-16.26-13.44-26.58-30.95-26.58Z"/>
      <path class="cls-1" d="m1575.49,546.21c0-15.95-1.56-25.95-5.63-37.83h34.71c-4.06,11.57-5.63,21.89-5.63,37.83v55.97c0,15.95,1.56,25.95,5.63,37.83h-34.71c4.06-11.57,5.63-21.89,5.63-37.83v-55.97Z"/>
      <g>
        <path class="cls-1" d="m1396.65,664.4c.31.63.63.94,1.25,1.56.63.31,1.56.94,2.5,1.25.94.31,2.5.63,4.06.94,3.44.63,5.63,1.88,7.19,3.13,1.56,1.25,2.5,3.13,2.5,5.32,0,1.25-.31,2.5-.63,3.44-.63.94-1.25,1.88-2.19,2.81s-1.88,1.25-3.13,1.56-2.5.63-4.06.63c-2.5,0-4.69-.31-6.57-1.25-1.88-.63-3.75-1.88-5.63-3.44l2.19-2.5c1.56,1.56,3.13,2.5,4.69,3.13s3.44.94,5.63.94c1.88,0,3.75-.31,4.69-1.25,1.25-.94,1.88-2.19,1.88-3.75,0-.63,0-1.25-.31-1.88s-.63-.94-1.25-1.56c-.63-.31-1.25-.94-2.5-1.25-.94-.31-2.19-.63-3.75-.94s-3.13-.94-4.38-1.25-2.19-.94-3.13-1.88c-.94-.63-1.56-1.56-1.88-2.5s-.63-1.88-.63-3.13.31-2.19.63-3.13c.63-.94,1.25-1.88,2.19-2.5s1.88-1.25,3.13-1.56,2.5-.63,3.75-.63c2.19,0,4.06.31,5.63.94s3.13,1.56,4.69,2.81l-1.88,2.5c-1.25-1.25-2.81-1.88-4.06-2.5-1.25-.63-2.81-.63-4.38-.63-.94,0-1.88,0-2.5.31s-1.56.63-1.88.94c-.63.31-.94.94-1.25,1.56-.31.63-.31,1.25-.31,1.88-.63.94-.31,1.56-.31,1.88Z"/>
        <path class="cls-1" d="m1420.41,658.15v-3.75h3.75v3.75h-3.75Zm.31,26.89v-21.89h3.13v21.89h-3.13Z"/>
        <path class="cls-1" d="m1434.8,685.03h-3.13v-21.89h3.13v3.75c.63-1.25,1.56-2.19,2.81-3.13s2.81-1.25,4.69-1.25c1.25,0,2.5.31,3.44.63s1.88.94,2.5,1.88c.63.63,1.25,1.56,1.56,2.81s.63,2.19.63,3.44v13.76h-3.13v-12.82c0-2.19-.63-3.75-1.56-4.69s-2.5-1.88-4.38-1.88c-.94,0-1.88.31-2.5.63-.94.31-1.56.94-2.19,1.25-.63.63-.94,1.25-1.25,2.19-.31.94-.63,1.88-.63,2.81v12.51h0Z"/>
        <path class="cls-1" d="m1472.94,684.1c-1.25.94-3.13,1.25-5.32,1.25-1.56,0-3.13-.31-4.38-.94s-2.5-1.56-3.44-2.5-1.88-2.19-2.5-3.75c-.63-1.25-.94-2.81-.94-4.38s.31-3.13.94-4.38,1.25-2.5,2.5-3.75,2.19-1.88,3.44-2.5,2.81-.94,4.38-.94c.94,0,1.88,0,2.81.31.94.31,1.56.63,2.19.94s1.25.63,1.88,1.25c.63.63,1.25.94,1.56,1.56l-2.19,2.19c-.94-.94-1.88-1.56-2.81-2.19s-2.19-.94-3.75-.94c-1.25,0-2.19.31-3.13.63s-1.88.94-2.5,1.88c-.63.63-1.25,1.56-1.56,2.81-.31.94-.63,2.19-.63,3.44s.31,2.19.63,3.44c.31.94.94,1.88,1.56,2.81s1.56,1.25,2.5,1.88c.94.31,2.19.63,3.13.63,1.56,0,2.81-.31,3.75-.94.94-.63,2.19-1.25,2.81-2.19l2.19,1.88c-.63.94-1.88,1.88-3.13,2.5Z"/>
        <path class="cls-1" d="m1484.2,678.16c.31.94.94,1.56,1.88,2.19.63.63,1.56,1.25,2.5,1.56s1.88.63,2.81.63c1.56,0,2.81-.31,4.06-.94.94-.63,2.19-1.25,3.13-2.19l2.19,1.88c-1.25,1.25-2.5,2.19-3.75,3.13-1.56.63-3.13,1.25-5.32,1.25-1.56,0-2.81-.31-4.38-.94-1.25-.63-2.5-1.25-3.44-2.19-.94-.94-1.88-2.19-2.5-3.75s-.94-3.13-.94-4.69.31-3.13.94-4.38,1.25-2.5,2.19-3.75,2.19-1.88,3.44-2.5c1.25-.63,2.81-.94,4.06-.94,1.56,0,3.13.31,4.38.94s2.5,1.56,3.13,2.5,1.56,2.19,1.88,3.75.63,2.81.63,4.69v.94h-17.2c-.31.94,0,2.19.31,2.81Zm13.13-5.32c0-.94-.31-1.88-.63-2.81s-.63-1.56-1.25-2.5c-.63-.63-1.25-1.25-2.19-1.56s-1.88-.63-2.81-.63-1.88.31-2.5.63-1.56.94-2.19,1.56-1.25,1.56-1.56,2.5-.63,1.88-.63,3.13h13.76v-.31Z"/>
        <path class="cls-1" d="m1523.9,655.02h2.5v30.02h-3.13v-26.58l-5.63,1.88-.94-2.81,7.19-2.5Z"/>
        <path class="cls-1" d="m1554.54,675.66c-.63,1.88-1.56,3.75-2.5,5-.94,1.56-2.5,2.5-3.75,3.44s-3.13,1.25-5,1.25-3.75-.31-5-.94c-1.56-.63-2.81-1.56-4.06-2.5l1.88-2.5c1.25.94,2.5,1.88,3.44,2.5,1.25.63,2.5.94,3.75.94s2.5-.31,3.75-.94c1.25-.63,2.19-1.56,2.81-2.81s1.25-2.5,1.88-4.06c.31-1.56.63-3.44.63-5.32-.94,1.25-1.88,2.5-3.13,3.44s-3.13,1.25-5,1.25c-1.56,0-2.81-.31-4.06-.63s-2.5-.94-3.13-1.88c-.94-.94-1.56-1.88-2.19-2.81-.63-1.25-.63-2.5-.63-3.75,0-1.56.31-2.81.94-4.06.63-1.25,1.25-2.19,2.19-3.13s2.19-1.56,3.44-2.19c1.25-.63,2.81-.94,4.38-.94s3.13.31,4.38.94,2.5,1.25,3.44,2.19c.63.63,1.25,1.25,1.56,1.88.31.63.94,1.56,1.25,2.5s.63,1.88.63,3.13c.31,1.25.31,2.5.31,4.06-1.25,1.88-1.56,4.06-2.19,5.94Zm-3.44-13.76c-.31-.94-.94-1.56-1.56-2.19s-1.56-.94-2.5-1.56c-.94-.31-1.88-.63-3.13-.63s-2.19.31-3.13.63c-.94.31-1.56.94-2.19,1.56s-.94,1.25-1.25,2.19c-.31.94-.63,1.88-.63,2.81s.31,1.88.63,2.5c.31.94.94,1.56,1.56,2.19s1.25.94,2.19,1.25c.94.31,1.88.63,2.81.63,1.25,0,2.19-.31,3.13-.63s1.56-.94,2.19-1.56,1.25-1.25,1.56-2.19.63-1.56.63-2.5c0-.94,0-1.88-.31-2.5Z"/>
        <path class="cls-1" d="m1582.06,675.66c-.63,1.88-1.56,3.75-2.5,5-.94,1.56-2.5,2.5-3.75,3.44s-3.13,1.25-5,1.25-3.75-.31-5-.94c-1.56-.63-2.81-1.56-4.06-2.5l1.88-2.5c1.25.94,2.5,1.88,3.44,2.5,1.25.63,2.5.94,3.75.94s2.5-.31,3.75-.94c1.25-.63,2.19-1.56,2.81-2.81s1.25-2.5,1.88-4.06c.31-1.56.63-3.44.63-5.32-.94,1.25-1.88,2.5-3.13,3.44s-3.13,1.25-5,1.25c-1.56,0-2.81-.31-4.06-.63s-2.5-.94-3.13-1.88c-.94-.94-1.56-1.88-2.19-2.81-.63-1.25-.63-2.5-.63-3.75,0-1.56.31-2.81.94-4.06.63-1.25,1.25-2.19,2.19-3.13s2.19-1.56,3.44-2.19c1.25-.63,2.81-.94,4.38-.94s3.13.31,4.38.94,2.5,1.25,3.44,2.19c.63.63,1.25,1.25,1.56,1.88.31.63.94,1.56,1.25,2.5s.63,1.88.63,3.13c.31,1.25.31,2.5.31,4.06-1.25,1.88-1.56,4.06-2.19,5.94Zm-3.75-13.76c-.31-.94-.94-1.56-1.56-2.19s-1.56-.94-2.5-1.56c-.94-.31-1.88-.63-3.13-.63s-2.19.31-3.13.63c-.94.31-1.56.94-2.19,1.56s-.94,1.25-1.25,2.19c-.31.94-.63,1.88-.63,2.81s.31,1.88.63,2.5c.31.94.94,1.56,1.56,2.19s1.25.94,2.19,1.25c.94.31,1.88.63,2.81.63,1.25,0,2.19-.31,3.13-.63s1.56-.94,2.19-1.56,1.25-1.25,1.56-2.19.63-1.56.63-2.5c.31-.94.31-1.88-.31-2.5Z"/>
        <path class="cls-1" d="m1590.5,655.33h17.2v3.13h-14.07l-.63,9.38c.94-.31,1.88-.63,2.5-.94.94-.31,1.88-.31,3.13-.31,1.56,0,2.81.31,4.06.63s2.19.94,3.13,1.88c.94.63,1.56,1.88,2.19,2.81.63,1.25.63,2.5.63,3.75,0,1.56-.31,2.81-.63,4.06-.63,1.25-1.25,2.19-2.19,3.13s-2.19,1.56-3.44,1.88-2.81.63-4.38.63c-2.19,0-4.06-.31-5.94-1.25-1.88-.94-3.44-1.88-4.69-3.44l2.19-2.5c1.25,1.25,2.5,2.19,4.06,3.13,1.25.63,2.81.94,4.38.94.94,0,1.88-.31,2.81-.63.94-.31,1.56-.94,2.19-1.25.63-.63,1.25-1.25,1.56-2.19s.63-1.56.63-2.5-.31-1.88-.63-2.5c-.31-.63-.94-1.56-1.56-1.88-.63-.63-1.56-.94-2.19-1.25-.94-.31-1.88-.31-3.13-.31s-2.5.31-3.44.63c-.94.31-1.88.63-2.81,1.25l-2.19-1.56,1.25-14.69Z"/>
      </g>
      <path class="cls-1" d="m1642.4,496.5c-.94,1.88-1.88,3.44-3.13,5-1.25,1.25-3.13,2.5-5,3.44s-3.75,1.25-5.94,1.25-4.06-.31-5.94-1.25c-1.88-.94-3.44-1.88-5-3.44-1.25-1.25-2.5-3.13-3.13-5-.94-1.88-1.25-3.75-1.25-5.94s.31-4.06,1.25-5.94c.94-1.88,1.88-3.44,3.13-5s3.13-2.5,5-3.44,3.75-1.25,5.94-1.25,4.06.31,5.94,1.25c1.88.94,3.44,1.88,5,3.44,1.25,1.25,2.5,3.13,3.13,5,.94,1.88,1.25,3.75,1.25,5.94s-.31,4.06-1.25,5.94Zm-1.25-11.26c-.63-1.56-1.56-3.13-2.81-4.38s-2.81-2.19-4.38-3.13c-1.56-.63-3.44-1.25-5.63-1.25-1.88,0-3.75.31-5.63,1.25-1.56.63-3.13,1.88-4.38,3.13s-2.19,2.81-2.81,4.38-.94,3.44-.94,5.32.31,3.75.94,5.32,1.56,3.13,2.81,4.38,2.81,2.19,4.38,3.13c1.56.63,3.44,1.25,5.63,1.25s3.75-.31,5.63-1.25c1.56-.63,3.13-1.88,4.38-3.13s2.19-2.81,2.81-4.38.94-3.44.94-5.32-.31-3.75-.94-5.32Zm-7.19,5c-.63.63-1.88,1.25-2.81,1.56l5,6.25h-2.81l-4.69-5.94h-4.06v5.94h-2.19v-15.63h7.19c1.88,0,3.13.31,4.38,1.25,1.25.94,1.56,1.88,1.56,3.44-.31,1.25-.63,2.19-1.56,3.13Zm-2.19-5c-.63-.63-1.56-.63-2.5-.63h-4.69v5.63h4.38c1.25,0,1.88-.31,2.81-.63s.94-1.25.94-2.19c0-1.25-.31-1.88-.94-2.19Z"/>
    </g>
  </g>
</svg>